# xmcd
#
# Track frame offsets:
#	150
#	17560
#	38186
#	60338
#	84855
#	103252
#	127886
#	155700
#	175102
#	202751
#	223531
#	240199
#	261978
#	282858
#	302495
#	317989
#	338591
#
# Disc length: 4814
#
# Revision: 1
# Processed by: cddbd v1.5.1PL0 Copyright (c) Steve Scherf et al.
# Submitted via: CDex 1.51
# Normalized: r0:DSETVAR1
#
DISCID=d912cc11
DTITLE=Various Artist - Salsa Nuestra 7
DYEAR=2004
DGENRE=Salsa
TTITLE0=Miguel Enriquez - Abre Que Voy
TTITLE1=La banda del puerto - Salsero
TTITLE2=Susie Hansen - La Salsa Nunca Se Acaba
TTITLE3=La banda del puerto - Son Para Ella
TTITLE4=Celia Cruz - Ella tiene fuego
TTITLE5=Los Van Van - El negro esta cocinando
TTITLE6=Juan Formell y Los Van Van - Ahora Quiereme
TTITLE7=La banda del puerto - Baby I love You
TTITLE8=Tabaco Y Ron - Coquetona
TTITLE9=Jose Mangual Jr. - Cuero Na'ma
TTITLE10=Juan Formell y Los Van Van - Proposiciones (con Pablo Milanes)
TTITLE11=Frankie Ruiz - Bailando
TTITLE12=Joe Arroyo - Rebelion (No le pegue a la negra)
TTITLE13=Gloria Estefan - Hoy (salsa)
TTITLE14=Don Dinero Feat D'mingo - Pana Pana
TTITLE15=Mambomania - Dame cinco
TTITLE16=Orishas - Chan Chan
EXTD=YEAR: 2004
EXTT0=
EXTT1=
EXTT2=
EXTT3=
EXTT4=
EXTT5=
EXTT6=
EXTT7=
EXTT8=
EXTT9=
EXTT10=
EXTT11=
EXTT12=
EXTT13=
EXTT14=
EXTT15=
EXTT16=
PLAYORDER=
